<?xml version="1.0" encoding="utf-8"?>
<!-- Generator: Adobe Illustrator 13.0.2, SVG Export Plug-In . SVG Version: 6.00 Build 14948)  -->
<!DOCTYPE svg PUBLIC "-//W3C//DTD SVG 1.0//EN" "http://www.w3.org/TR/2001/REC-SVG-20010904/DTD/svg10.dtd">
<svg version="1.0"
	 id="svg24159" xmlns:rdf="http://www.w3.org/1999/02/22-rdf-syntax-ns#" xmlns:dc="http://purl.org/dc/elements/1.1/" xmlns:svg="http://www.w3.org/2000/svg" xmlns:cc="http://web.resource.org/cc/" inkscape:version="0.41" sodipodi:docname="Biohazard.svg" sodipodi:docbase="/home/marian/Desktop/Bilder" sodipodi:version="0.32" xmlns:inkscape="http://www.inkscape.org/namespaces/inkscape" xmlns:sodipodi="http://inkscape.sourceforge.net/DTD/sodipodi-0.dtd"
	 xmlns="http://www.w3.org/2000/svg" xmlns:xlink="http://www.w3.org/1999/xlink" x="0px" y="0px" width="374px" height="352px"
	 viewBox="3.075 7.005 374 352" enable-background="new 3.075 7.005 374 352" xml:space="preserve">
<sodipodi:namedview  id="base" inkscape:cy="200.00000" inkscape:cx="200.00000" pagecolor="#ffffff" borderopacity="1.0" bordercolor="#666666" inkscape:zoom="0.94750000" inkscape:pageopacity="0.0" inkscape:window-width="640" inkscape:window-height="541" inkscape:pageshadow="2" inkscape:window-y="33" inkscape:window-x="0" inkscape:current-layer="svg24159">
	</sodipodi:namedview>
<linearGradient id="path7214_1_" gradientUnits="userSpaceOnUse" x1="189.7146" y1="12.5332" x2="187.5836" y2="343.2632">
	<stop  offset="0" style="stop-color:#C9DCFF"/>
	<stop  offset="1" style="stop-color:#7D90B2"/>
</linearGradient>
<path id="path7214" fill="url(#path7214_1_)" d="M185.179,12.504c0,0.001,0.001,0.028,0,0.029c0.01-0.002,0.02-0.025,0.028-0.029
	C185.205,12.504,185.183,12.504,185.179,12.504z M183.032,12.59c-0.02,0.002-0.037,0.026-0.057,0.029
	c0.076-0.005,0.152-0.024,0.229-0.029c-0.019,0-0.038,0-0.057,0C183.105,12.592,183.073,12.585,183.032,12.59z M193.454,12.647
	c0.152,0.011,0.306,0.016,0.458,0.028C193.761,12.667,193.604,12.656,193.454,12.647z M193.912,12.676
	c38.555,3.064,68.913,35.387,68.913,74.726c0,40.054-31.508,72.723-71.061,74.754v15.346c10.798,1.707,19.068,11.086,19.068,22.361
	c0,2.76-0.497,5.398-1.403,7.844l14.029,8.104c21.68-32.75,65.421-43.436,99.892-23.535c34.388,19.854,47.085,62.927,29.747,98.031
	c23.796-46.315,7.248-103.721-38.337-130.039c-11.404-6.586-23.557-10.598-35.845-12.254c4.703-11.468,7.301-24.025,7.301-37.191
	C286.217,58.568,245.386,15.791,193.912,12.676z M181.344,12.733c-51.219,3.383-91.79,46.019-91.79,98.088
	c0,12.792,2.445,25.016,6.9,36.217c-11.923,1.746-23.741,5.718-34.814,12.111c-45.28,26.143-61.866,82.943-38.766,129.095
	c-16.679-34.937-3.889-77.431,30.205-97.114c34.688-20.027,78.729-9.074,100.264,24.164l13.542-7.816
	c-0.851-2.379-1.288-4.945-1.288-7.615c0-10.797,7.569-19.828,17.693-22.074v-15.661c-39.202-2.401-70.316-34.923-70.316-74.726
	C112.973,48.243,143.04,16.049,181.344,12.733z M185.723,106.87c-19.786,0.455-38.027,7.191-52.995,18.152
	c1.196,1.77,2.48,3.482,3.837,5.125c1.355,1.643,2.789,3.219,4.294,4.724c1.506,1.505,3.082,2.939,4.725,4.295
	c1.208,0.997,2.502,1.895,3.779,2.806c11.048-7.254,24.279-11.509,38.536-11.509c14.258,0,27.46,4.255,38.508,11.509
	c1.277-0.911,2.571-1.809,3.779-2.806c1.644-1.356,3.22-2.79,4.725-4.295s2.938-3.081,4.294-4.724
	c1.356-1.643,2.641-3.355,3.837-5.125c-15.509-11.357-34.528-18.152-55.143-18.152c-0.482,0-0.979-0.007-1.46,0
	C186.204,106.874,185.958,106.865,185.723,106.87z M95.538,189.44c-2.081,19.109,1.546,38.979,11.853,56.832
	c10.307,17.852,25.7,30.955,43.289,38.708c0.935-1.921,1.775-3.902,2.52-5.897c0.745-1.996,1.396-4.014,1.947-6.07
	c0.551-2.056,1.021-4.141,1.374-6.241c0.26-1.545,0.394-3.105,0.544-4.667c-11.807-5.941-22.103-15.281-29.231-27.629
	c-7.129-12.347-10.063-25.913-9.305-39.108c-1.428-0.651-2.856-1.313-4.323-1.861c-1.996-0.745-4.014-1.396-6.07-1.946
	c-2.056-0.551-4.141-0.993-6.241-1.346C99.793,189.86,97.668,189.591,95.538,189.44z M280.891,190.558
	c-2.131,0.15-4.256,0.42-6.356,0.772s-4.186,0.795-6.241,1.346s-4.103,1.202-6.099,1.946c-1.467,0.548-2.866,1.24-4.294,1.891
	c0.758,13.195-2.177,26.762-9.305,39.109c-7.129,12.346-17.426,21.658-29.232,27.6c0.15,1.561,0.285,3.121,0.544,4.666
	c0.354,2.102,0.795,4.186,1.346,6.242c0.551,2.055,1.202,4.102,1.947,6.098c0.744,1.996,1.585,3.949,2.52,5.869
	c17.59-7.752,32.982-20.828,43.289-38.68S282.972,209.666,280.891,190.558z M171.179,214.722l-13.628,7.901
	c17.521,35.15,4.923,78.358-29.547,98.26c-34.301,19.804-77.817,9.382-99.605-22.99c28.273,43.565,86.09,57.847,131.586,31.579
	c11.021-6.363,20.317-14.565,27.771-23.963c7.6,9.879,17.219,18.459,28.688,25.08c45.547,26.296,103.433,11.957,131.671-31.723
	c-21.747,32.512-65.327,43.03-99.69,23.19c-34.688-20.027-47.221-63.649-29.203-98.918l-14.172-8.188
	c-4.143,4.611-10.153,7.529-16.835,7.529C181.424,222.479,175.326,219.465,171.179,214.722z"/>
</svg>
